1.9Hzhigh3min_grf.mot
version=1
nRows=17
nColumns 19
inDegrees=yes
endheader
time	1_ground_force_vx	1_ground_force_vy	1_ground_force_vz	1_ground_force_px	1_ground_force_py	1_ground_force_pz	1_ground_torque_x	1_ground_torque_y	1_ground_torque_z	2_ground_force_vx	2_ground_force_vy	2_ground_force_vz	2_ground_force_px	2_ground_force_py	2_ground_force_pz	2_ground_torque_x	2_ground_torque_y	2_ground_torque_z
            2.502500	           15.584675	          986.461394	          -90.274783	           -0.288760	            0.006203	           -0.402977	            0.001445	            0.091473	           -0.008371	           44.256996	         1263.062784	          108.432439	           -0.326400	            0.005202	           -0.668761	            0.235772	            6.728765	            0.577656
            2.503000	            9.523324	          999.272427	          -93.323086	           -0.288702	            0.006202	           -0.402683	           -0.002582	           -0.270918	            0.025301	           44.358810	         1273.745568	          108.048128	           -0.326384	            0.005202	           -0.668702	            0.231575	            6.649590	            0.564065
            2.503500	            1.771019	         1012.074088	          -94.257816	           -0.288727	            0.006200	           -0.402321	           -0.001310	           -0.748340	            0.069695	           46.055081	         1284.063615	          108.178042	           -0.326401	            0.005202	           -0.668602	            0.187009	            5.213995	            0.439262
            2.504000	           -5.795180	         1023.609629	          -94.189573	           -0.288833	            0.006200	           -0.402393	            0.007144	           -1.261858	            0.116113	           46.904000	         1295.484330	          108.171481	           -0.326388	            0.005202	           -0.668697	            0.131833	            3.641206	            0.304037
            2.504500	           -9.830557	         1035.144402	          -93.763243	           -0.288882	            0.006200	           -0.402415	            0.013219	           -1.391928	            0.126081	           45.458897	         1306.526010	          108.821560	           -0.326141	            0.005203	           -0.668649	            0.102985	            2.959874	            0.246530
            2.505000	          -10.247497	         1047.766398	          -94.533511	           -0.288936	            0.006199	           -0.402197	            0.010431	           -1.066570	            0.096230	           41.580476	         1316.820489	          109.986264	           -0.326168	            0.005202	           -0.668558	            0.117667	            3.726431	            0.311247
            2.505500	           -8.557997	         1058.230453	          -96.418844	           -0.289058	            0.006201	           -0.402528	            0.004615	           -0.570684	            0.051997	           38.078110	         1326.748587	          110.961782	           -0.326294	            0.005201	           -0.668365	            0.150057	            5.228425	            0.437276
            2.506000	           -7.513605	         1071.222958	          -99.438143	           -0.289038	            0.006200	           -0.402355	            0.000809	           -0.115298	            0.010703	           35.975673	         1338.156895	          111.378820	           -0.326363	            0.005201	           -0.668394	            0.171982	            6.397077	            0.532448
            2.506500	           -8.850994	         1081.688347	         -101.820387	           -0.288975	            0.006200	           -0.402310	           -0.000171	            0.020945	           -0.001972	           37.341974	         1349.026652	          111.463925	           -0.326380	            0.005201	           -0.668350	            0.168332	            6.081210	            0.502463
            2.507000	          -13.715641	         1091.968602	         -103.139937	           -0.289148	            0.006200	           -0.402366	            0.003022	           -0.240619	            0.022727	           40.348609	         1359.718676	          111.359947	           -0.326270	            0.005201	           -0.668281	            0.135042	            4.550826	            0.372709
            2.507500	          -19.493833	         1102.783305	         -103.079224	           -0.289256	            0.006199	           -0.402205	            0.012351	           -0.698710	            0.065310	           43.264843	         1369.489887	          111.205804	           -0.326331	            0.005200	           -0.668178	            0.092718	            2.934869	            0.238318
            2.508000	          -23.758452	         1111.975213	         -102.845798	           -0.289283	            0.006200	           -0.402320	            0.024220	           -1.133579	            0.104844	           44.164020	         1379.989215	          111.383650	           -0.326374	            0.005200	           -0.668184	            0.075398	            2.355951	            0.190157
            2.508500	          -24.907449	         1124.234360	         -103.065535	           -0.289374	            0.006199	           -0.402074	            0.026731	           -1.206530	            0.110610	           43.143904	         1390.111363	          112.077199	           -0.326432	            0.005200	           -0.668118	            0.094442	            3.042941	            0.245336
            2.509000	          -22.438160	         1133.436221	         -104.866494	           -0.289506	            0.006199	           -0.402234	            0.015521	           -0.784021	            0.072538	           40.344784	         1399.859258	          112.676336	           -0.326588	            0.005198	           -0.667925	            0.132937	            4.612580	            0.371272
            2.509500	          -18.594154	         1143.900889	         -106.803012	           -0.289542	            0.006200	           -0.402382	            0.003653	           -0.224703	            0.020980	           38.577043	         1409.426628	          113.321299	           -0.326642	            0.005198	           -0.667874	            0.153266	            5.599633	            0.450224
            2.510000	          -16.308333	         1153.643481	         -108.601198	           -0.289481	            0.006200	           -0.402367	           -0.003489	            0.246787	           -0.023232	           39.388485	         1418.268335	          113.446335	           -0.326709	            0.005197	           -0.667749	            0.144731	            5.211371	            0.416854
            2.510500	          -16.680044	         1163.383201	         -109.842513	           -0.289610	            0.006200	           -0.402424	           -0.005850	            0.407997	           -0.038522	           41.596799	         1429.509207	          113.626251	           -0.326720	            0.005198	           -0.667845	            0.109976	            3.779402	            0.300410
